<?xml version="1.0" encoding="UTF-8"?>
<svg xmlns="http://www.w3.org/2000/svg" xmlns:xlink="http://www.w3.org/1999/xlink" width="100pt" height="100pt" viewBox="0 0 100 100" version="1.1">
<g id="surface1">
<path style=" stroke:none;fill-rule:nonzero;fill:rgb(0%,0%,0%);fill-opacity:1;" d="M 99 54.902344 C 96.4375 47.367188 89.367188 42.300781 81.410156 42.300781 C 80.214844 42.300781 79.03125 42.453125 77.863281 42.683594 L 70.90625 22.222656 C 70.558594 21.207031 69.605469 20.523438 68.53125 20.523438 L 63.847656 20.523438 C 62.460938 20.523438 61.335938 21.648438 61.335938 23.03125 C 61.335938 24.417969 62.460938 25.542969 63.847656 25.542969 L 66.734375 25.542969 L 69.261719 32.96875 L 41.765625 32.96875 L 41.765625 28.511719 L 46.167969 27.9375 C 46.847656 27.851562 47.414062 27.316406 47.503906 26.605469 C 47.613281 25.757812 47.015625 24.980469 46.167969 24.871094 L 32.199219 23.058594 C 31.921875 23.023438 31.621094 23.023438 31.332031 23.058594 C 29.484375 23.300781 28.179688 24.992188 28.417969 26.839844 C 28.660156 28.6875 30.351562 29.992188 32.199219 29.75 L 36.746094 29.160156 L 36.746094 34.429688 L 28.382812 45.132812 C 25.535156 43.355469 22.183594 42.308594 18.585938 42.308594 C 8.335938 42.308594 0 50.644531 0 60.890625 C 0 71.140625 8.335938 79.476562 18.585938 79.476562 C 27.679688 79.476562 35.257812 72.902344 36.847656 64.257812 L 43.660156 64.257812 L 43.660156 66.820312 L 42.460938 66.820312 C 41.535156 66.820312 40.789062 67.570312 40.789062 68.492188 C 40.789062 69.417969 41.535156 70.164062 42.460938 70.164062 L 49.875 70.164062 C 50.800781 70.164062 51.546875 69.417969 51.546875 68.492188 C 51.546875 67.570312 50.800781 66.820312 49.875 66.820312 L 48.679688 66.820312 L 48.679688 64.257812 L 49.800781 64.257812 C 50.574219 64.257812 51.304688 63.902344 51.777344 63.292969 L 71.144531 38.511719 L 73.125 44.335938 C 69.507812 46.136719 66.550781 48.988281 64.734375 52.679688 C 62.539062 57.132812 62.210938 62.171875 63.808594 66.871094 C 66.375 74.414062 73.445312 79.476562 81.40625 79.476562 C 83.4375 79.476562 85.449219 79.144531 87.386719 78.484375 C 92.085938 76.886719 95.882812 73.554688 98.078125 69.101562 C 100.269531 64.644531 100.601562 59.605469 99 54.902344 Z M 29.074219 52.398438 C 30.636719 54.324219 31.664062 56.660156 31.984375 59.238281 L 23.730469 59.238281 Z M 18.585938 74.457031 C 11.105469 74.457031 5.019531 68.371094 5.019531 60.890625 C 5.019531 53.410156 11.105469 47.328125 18.585938 47.328125 C 21.019531 47.328125 23.269531 48.023438 25.246094 49.148438 L 16.609375 60.203125 C 16.015625 60.957031 15.910156 61.984375 16.328125 62.847656 C 16.75 63.710938 17.625 64.257812 18.585938 64.257812 L 31.675781 64.257812 C 30.171875 70.105469 24.894531 74.457031 18.585938 74.457031 Z M 48.578125 59.238281 L 37.085938 59.238281 C 36.714844 55.050781 34.941406 51.265625 32.25 48.335938 L 36.746094 42.582031 L 36.746094 49.164062 C 36.746094 50.546875 37.871094 51.671875 39.253906 51.671875 C 40.640625 51.671875 41.765625 50.546875 41.765625 49.164062 L 41.765625 37.988281 L 65.183594 37.988281 Z M 77.734375 57.886719 L 79.027344 61.695312 C 79.382812 62.738281 80.359375 63.394531 81.402344 63.394531 C 81.671875 63.394531 81.945312 63.351562 82.210938 63.261719 C 83.523438 62.816406 84.226562 61.390625 83.777344 60.078125 L 82.496094 56.300781 C 84.0625 56.671875 85.375 57.78125 85.910156 59.359375 C 86.320312 60.5625 86.238281 61.851562 85.675781 62.992188 C 85.113281 64.132812 84.140625 64.984375 82.9375 65.394531 C 80.492188 66.222656 77.726562 64.84375 76.902344 62.421875 C 76.355469 60.8125 76.730469 59.117188 77.734375 57.886719 Z M 93.578125 66.878906 C 91.972656 70.132812 89.203125 72.5625 85.773438 73.734375 C 84.355469 74.214844 82.886719 74.457031 81.40625 74.457031 C 75.59375 74.457031 70.433594 70.757812 68.5625 65.257812 C 67.394531 61.828125 67.632812 58.148438 69.234375 54.898438 C 70.460938 52.410156 72.375 50.417969 74.742188 49.085938 L 76.5625 54.441406 C 73.84375 56.492188 72.578125 60.101562 73.734375 63.5 C 74.851562 66.789062 77.933594 68.996094 81.40625 68.996094 C 82.292969 68.996094 83.167969 68.851562 84.015625 68.5625 C 86.0625 67.867188 87.722656 66.414062 88.675781 64.472656 C 89.632812 62.527344 89.777344 60.328125 89.078125 58.277344 C 87.953125 54.976562 84.707031 52.851562 81.320312 52.84375 L 79.496094 47.480469 C 80.128906 47.386719 80.769531 47.320312 81.410156 47.320312 C 87.21875 47.320312 92.375 51.015625 94.25 56.519531 C 95.414062 59.949219 95.175781 63.632812 93.578125 66.878906 Z M 93.578125 66.878906 "/>
</g>
</svg>
