<?xml version="1.0" encoding="UTF-8"?>
<svg xmlns="http://www.w3.org/2000/svg" xmlns:xlink="http://www.w3.org/1999/xlink" width="50pt" height="50pt" viewBox="0 0 50 50" version="1.1">
<g id="surface1">
<path style=" stroke:none;fill-rule:nonzero;fill:rgb(100%,89.019608%,40.784314%);fill-opacity:1;" d="M 15.199219 32.28125 L 16.847656 32.28125 L 16.847656 48.246094 L 15.199219 48.246094 Z M 15.199219 32.28125 "/>
<path style=" stroke:none;fill-rule:nonzero;fill:rgb(100%,89.019608%,40.784314%);fill-opacity:1;" d="M 33.152344 32.28125 L 34.800781 32.28125 L 34.800781 48.246094 L 33.152344 48.246094 Z M 33.152344 32.28125 "/>
<path style=" stroke:none;fill-rule:nonzero;fill:rgb(100%,89.019608%,40.784314%);fill-opacity:1;" d="M 16.023438 47.148438 C 13.34375 47.148438 10.933594 48.246094 9.242188 50 L 22.800781 50 C 21.113281 48.246094 18.699219 47.148438 16.023438 47.148438 Z M 16.023438 47.148438 "/>
<path style=" stroke:none;fill-rule:nonzero;fill:rgb(100%,66.666667%,5.490196%);fill-opacity:1;" d="M 22.800781 7.484375 L 22.800781 26.601562 C 22.800781 30.34375 19.765625 33.382812 16.023438 33.382812 C 12.277344 33.382812 9.242188 30.34375 9.242188 26.601562 L 9.242188 7.484375 L 16.023438 4.1875 Z M 22.800781 7.484375 "/>
<path style=" stroke:none;fill-rule:nonzero;fill:rgb(100%,89.019608%,40.784314%);fill-opacity:1;" d="M 9.242188 0 L 22.800781 0 L 22.800781 7.484375 L 9.242188 7.484375 Z M 9.242188 0 "/>
<path style=" stroke:none;fill-rule:nonzero;fill:rgb(100%,89.019608%,40.784314%);fill-opacity:1;" d="M 14.1875 11.605469 C 14.1875 12.058594 13.816406 12.429688 13.363281 12.429688 C 12.90625 12.429688 12.539062 12.058594 12.539062 11.605469 C 12.539062 11.148438 12.90625 10.78125 13.363281 10.78125 C 13.816406 10.78125 14.1875 11.148438 14.1875 11.605469 Z M 14.1875 11.605469 "/>
<path style=" stroke:none;fill-rule:nonzero;fill:rgb(100%,89.019608%,40.784314%);fill-opacity:1;" d="M 14.1875 14.902344 C 14.1875 15.355469 13.816406 15.726562 13.363281 15.726562 C 12.90625 15.726562 12.539062 15.355469 12.539062 14.902344 C 12.539062 14.445312 12.90625 14.078125 13.363281 14.078125 C 13.816406 14.078125 14.1875 14.445312 14.1875 14.902344 Z M 14.1875 14.902344 "/>
<path style=" stroke:none;fill-rule:nonzero;fill:rgb(100%,89.019608%,40.784314%);fill-opacity:1;" d="M 33.980469 47.148438 C 31.300781 47.148438 28.886719 48.246094 27.199219 50 L 40.757812 50 C 39.070312 48.246094 36.65625 47.148438 33.980469 47.148438 Z M 33.980469 47.148438 "/>
<path style=" stroke:none;fill-rule:nonzero;fill:rgb(100%,66.666667%,5.490196%);fill-opacity:1;" d="M 40.757812 7.484375 L 40.757812 26.601562 C 40.757812 30.34375 37.722656 33.382812 33.976562 33.382812 C 30.234375 33.382812 27.199219 30.34375 27.199219 26.601562 L 27.199219 7.484375 L 33.976562 5.285156 Z M 40.757812 7.484375 "/>
<path style=" stroke:none;fill-rule:nonzero;fill:rgb(100%,89.019608%,40.784314%);fill-opacity:1;" d="M 27.199219 0 L 40.757812 0 L 40.757812 7.484375 L 27.199219 7.484375 Z M 27.199219 0 "/>
<path style=" stroke:none;fill-rule:nonzero;fill:rgb(100%,89.019608%,40.784314%);fill-opacity:1;" d="M 32.144531 20.394531 C 32.144531 20.851562 31.773438 21.21875 31.320312 21.21875 C 30.863281 21.21875 30.496094 20.851562 30.496094 20.394531 C 30.496094 19.941406 30.863281 19.570312 31.320312 19.570312 C 31.773438 19.570312 32.144531 19.941406 32.144531 20.394531 Z M 32.144531 20.394531 "/>
<path style=" stroke:none;fill-rule:nonzero;fill:rgb(100%,100%,100%);fill-opacity:1;" d="M 16.023438 30.910156 C 15.566406 30.910156 15.199219 30.539062 15.199219 30.085938 C 15.199219 29.628906 15.566406 29.261719 16.023438 29.261719 C 17.488281 29.261719 18.683594 28.066406 18.683594 26.601562 L 18.683594 25.5 C 18.683594 25.046875 19.050781 24.675781 19.507812 24.675781 C 19.960938 24.675781 20.332031 25.046875 20.332031 25.5 L 20.332031 26.601562 C 20.328125 28.976562 18.398438 30.910156 16.023438 30.910156 Z M 16.023438 30.910156 "/>
<path style=" stroke:none;fill-rule:nonzero;fill:rgb(100%,100%,100%);fill-opacity:1;" d="M 19.503906 23.027344 C 19.050781 23.027344 18.679688 22.660156 18.679688 22.203125 L 18.679688 10.78125 C 18.679688 10.324219 19.050781 9.957031 19.503906 9.957031 C 19.960938 9.957031 20.328125 10.324219 20.328125 10.78125 L 20.328125 22.203125 C 20.328125 22.660156 19.960938 23.027344 19.503906 23.027344 Z M 19.503906 23.027344 "/>
<path style=" stroke:none;fill-rule:nonzero;fill:rgb(100%,100%,100%);fill-opacity:1;" d="M 33.980469 30.910156 C 33.523438 30.910156 33.15625 30.539062 33.15625 30.085938 C 33.15625 29.628906 33.523438 29.261719 33.980469 29.261719 C 35.445312 29.261719 36.636719 28.066406 36.636719 26.601562 L 36.636719 25.5 C 36.636719 25.046875 37.007812 24.675781 37.460938 24.675781 C 37.917969 24.675781 38.285156 25.046875 38.285156 25.5 L 38.285156 26.601562 C 38.285156 28.976562 36.355469 30.910156 33.980469 30.910156 Z M 33.980469 30.910156 "/>
<path style=" stroke:none;fill-rule:nonzero;fill:rgb(100%,100%,100%);fill-opacity:1;" d="M 37.460938 23.027344 C 37.007812 23.027344 36.636719 22.660156 36.636719 22.203125 L 36.636719 10.78125 C 36.636719 10.324219 37.007812 9.957031 37.460938 9.957031 C 37.917969 9.957031 38.285156 10.324219 38.285156 10.78125 L 38.285156 22.203125 C 38.285156 22.660156 37.917969 23.027344 37.460938 23.027344 Z M 37.460938 23.027344 "/>
</g>
</svg>
