<?xml version="1.0" encoding="UTF-8"?>
<svg xmlns="http://www.w3.org/2000/svg" xmlns:xlink="http://www.w3.org/1999/xlink" width="100pt" height="100pt" viewBox="0 0 100 100" version="1.1">
<g id="surface1">
<path style=" stroke:none;fill-rule:nonzero;fill:rgb(100%,25.882353%,17.647059%);fill-opacity:1;" d="M 74.050781 98.007812 C 71.40625 98.007812 69.261719 95.863281 69.261719 93.21875 C 69.261719 79.714844 58.140625 66.800781 46.371094 53.125 C 33.972656 38.726562 21.15625 23.839844 21.15625 6.785156 C 21.15625 4.136719 23.300781 1.992188 25.949219 1.992188 C 28.59375 1.992188 30.738281 4.136719 30.738281 6.785156 C 30.738281 20.285156 41.859375 33.199219 53.632812 46.875 C 66.027344 61.273438 78.84375 76.160156 78.84375 93.21875 C 78.84375 95.863281 76.699219 98.007812 74.050781 98.007812 Z M 74.050781 98.007812 "/>
<path style=" stroke:none;fill-rule:nonzero;fill:rgb(23.529412%,76.862745%,86.27451%);fill-opacity:1;" d="M 25.949219 98.007812 C 23.300781 98.007812 21.15625 95.863281 21.15625 93.21875 C 21.15625 76.160156 33.972656 61.269531 46.367188 46.875 C 58.140625 33.199219 69.261719 20.285156 69.261719 6.785156 C 69.261719 4.136719 71.40625 1.992188 74.050781 1.992188 C 76.699219 1.992188 78.84375 4.136719 78.84375 6.785156 C 78.84375 23.839844 66.027344 38.730469 53.632812 53.125 C 41.859375 66.800781 30.738281 79.714844 30.738281 93.21875 C 30.738281 95.863281 28.59375 98.007812 25.949219 98.007812 Z M 25.949219 98.007812 "/>
<path style=" stroke:none;fill-rule:nonzero;fill:rgb(0%,0%,0%);fill-opacity:1;" d="M 80.835938 6.785156 C 80.835938 3.042969 77.792969 0 74.050781 0 C 70.3125 0 67.269531 3.042969 67.269531 6.785156 C 67.269531 8.839844 66.984375 10.894531 66.460938 12.949219 L 33.53125 12.949219 C 33.179688 11.558594 32.9375 10.167969 32.820312 8.773438 L 54.582031 8.773438 C 55.683594 8.773438 56.574219 7.882812 56.574219 6.785156 C 56.574219 5.683594 55.683594 4.792969 54.582031 4.792969 L 32.433594 4.792969 C 31.578125 2.019531 28.996094 0 25.949219 0 C 22.207031 0 19.164062 3.042969 19.164062 6.785156 C 19.164062 22.582031 29.398438 36.277344 41.066406 50 C 29.742188 63.3125 19.164062 77.203125 19.164062 93.21875 C 19.164062 96.957031 22.207031 100 25.949219 100 C 28.84375 100 31.320312 98.175781 32.289062 95.617188 L 67.707031 95.617188 C 68.679688 98.175781 71.15625 100 74.050781 100 C 77.792969 100 80.835938 96.957031 80.835938 93.21875 C 80.835938 77.378906 70.585938 63.707031 58.933594 50 C 70.257812 36.6875 80.835938 22.796875 80.835938 6.785156 Z M 50 39.558594 C 48.339844 37.589844 46.71875 35.625 45.175781 33.664062 L 54.8125 33.664062 C 53.28125 35.617188 51.664062 37.582031 50 39.558594 Z M 57.820312 29.679688 L 42.164062 29.679688 C 41.105469 28.21875 40.105469 26.757812 39.183594 25.300781 L 60.796875 25.300781 C 59.878906 26.753906 58.878906 28.214844 57.820312 29.679688 Z M 65.160156 16.933594 C 64.582031 18.390625 63.898438 19.851562 63.121094 21.316406 L 36.859375 21.316406 C 36.085938 19.855469 35.402344 18.394531 34.828125 16.933594 Z M 23.148438 6.785156 C 23.148438 5.238281 24.40625 3.984375 25.949219 3.984375 C 27.492188 3.984375 28.746094 5.238281 28.746094 6.785156 C 28.746094 15.683594 33.160156 24.128906 39.285156 32.496094 C 39.402344 32.75 39.570312 32.976562 39.773438 33.160156 C 42.125 36.324219 44.710938 39.476562 47.382812 42.636719 C 46.546875 43.613281 45.707031 44.589844 44.859375 45.574219 C 44.46875 46.027344 44.078125 46.480469 43.6875 46.933594 C 32.695312 33.964844 23.148438 21.070312 23.148438 6.785156 Z M 25.949219 96.015625 C 24.40625 96.015625 23.148438 94.761719 23.148438 93.21875 C 23.148438 76.898438 35.71875 62.296875 47.878906 48.175781 C 59.898438 34.210938 71.253906 21.023438 71.253906 6.785156 C 71.253906 5.238281 72.507812 3.984375 74.050781 3.984375 C 75.59375 3.984375 76.851562 5.238281 76.851562 6.785156 C 76.851562 23.101562 64.277344 37.703125 52.121094 51.828125 C 40.101562 65.789062 28.746094 78.976562 28.746094 93.21875 C 28.746094 94.761719 27.492188 96.015625 25.949219 96.015625 Z M 33.4375 87.460938 L 66.570312 87.460938 C 66.898438 88.847656 67.117188 90.238281 67.214844 91.632812 L 32.789062 91.632812 C 32.882812 90.242188 33.105469 88.851562 33.4375 87.460938 Z M 34.679688 83.476562 C 35.238281 82.015625 35.90625 80.558594 36.664062 79.09375 L 63.355469 79.09375 C 64.109375 80.554688 64.777344 82.015625 65.332031 83.476562 Z M 38.945312 75.109375 C 39.851562 73.652344 40.839844 72.191406 41.886719 70.726562 L 58.132812 70.726562 C 59.179688 72.1875 60.164062 73.648438 61.074219 75.109375 Z M 44.867188 66.742188 C 46.496094 64.65625 48.21875 62.554688 50 60.441406 C 51.777344 62.546875 53.507812 64.648438 55.144531 66.742188 Z M 76.851562 93.21875 C 76.851562 94.761719 75.59375 96.015625 74.050781 96.015625 C 72.507812 96.015625 71.253906 94.761719 71.253906 93.21875 C 71.253906 80.710938 62.542969 69.101562 52.617188 57.363281 C 53.453125 56.386719 54.292969 55.410156 55.140625 54.425781 C 55.53125 53.972656 55.921875 53.519531 56.3125 53.066406 C 67.289062 66.019531 76.851562 78.898438 76.851562 93.21875 Z M 76.851562 93.21875 "/>
<path style=" stroke:none;fill-rule:nonzero;fill:rgb(0%,0%,0%);fill-opacity:1;" d="M 61.355469 8.773438 L 62.351562 8.773438 C 63.449219 8.773438 64.34375 7.882812 64.34375 6.785156 C 64.34375 5.683594 63.449219 4.792969 62.351562 4.792969 L 61.355469 4.792969 C 60.253906 4.792969 59.363281 5.683594 59.363281 6.785156 C 59.363281 7.882812 60.253906 8.773438 61.355469 8.773438 Z M 61.355469 8.773438 "/>
</g>
</svg>
