<?xml version="1.0" encoding="UTF-8"?>
<svg xmlns="http://www.w3.org/2000/svg" xmlns:xlink="http://www.w3.org/1999/xlink" width="50pt" height="50pt" viewBox="0 0 50 50" version="1.1">
<defs>
<filter id="alpha" filterUnits="objectBoundingBox" x="0%" y="0%" width="100%" height="100%">
  <feColorMatrix type="matrix" in="SourceGraphic" values="0 0 0 0 1 0 0 0 0 1 0 0 0 0 1 0 0 0 1 0"/>
</filter>
<mask id="mask0">
  <g filter="url(#alpha)">
<rect x="0" y="0" width="50" height="50" style="fill:rgb(0%,0%,0%);fill-opacity:0.34902;stroke:none;"/>
  </g>
</mask>
<clipPath id="clip1">
  <rect x="0" y="0" width="50" height="50"/>
</clipPath>
<g id="surface5" clip-path="url(#clip1)">
<path style=" stroke:none;fill-rule:nonzero;fill:rgb(25.098039%,33.333333%,38.823529%);fill-opacity:1;" d="M 3.730469 37.734375 C 7.511719 35.019531 12.691406 35.128906 16.355469 38.0625 C 15.875 37.144531 15.253906 36.285156 14.484375 35.511719 C 10.804688 31.835938 5.074219 31.46875 0.984375 34.40625 C 0.25 34.9375 0.175781 36.003906 0.816406 36.644531 L 3.128906 38.957031 C 3.117188 38.496094 3.320312 38.03125 3.730469 37.734375 Z M 3.730469 37.734375 "/>
</g>
<mask id="mask1">
  <g filter="url(#alpha)">
<rect x="0" y="0" width="50" height="50" style="fill:rgb(0%,0%,0%);fill-opacity:0.34902;stroke:none;"/>
  </g>
</mask>
<clipPath id="clip2">
  <rect x="0" y="0" width="50" height="50"/>
</clipPath>
<g id="surface8" clip-path="url(#clip2)">
<path style=" stroke:none;fill-rule:nonzero;fill:rgb(25.098039%,33.333333%,38.823529%);fill-opacity:1;" d="M 49.015625 34.40625 C 44.925781 31.46875 39.195312 31.835938 35.515625 35.511719 C 34.617188 36.414062 33.917969 37.433594 33.414062 38.527344 C 37.097656 35.144531 42.613281 34.882812 46.582031 37.734375 C 46.90625 37.96875 47.101562 38.304688 47.164062 38.664062 L 49.183594 36.644531 C 49.824219 36.003906 49.75 34.9375 49.015625 34.40625 Z M 49.015625 34.40625 "/>
</g>
</defs>
<g id="surface1">
<path style=" stroke:none;fill-rule:nonzero;fill:rgb(60.784314%,69.411765%,73.72549%);fill-opacity:1;" d="M 49.902344 0.539062 L 14.636719 37.820312 C 14.550781 37.90625 14.414062 37.910156 14.328125 37.824219 L 12.171875 35.667969 C 12.085938 35.582031 12.089844 35.445312 12.175781 35.359375 L 49.457031 0.09375 C 49.753906 -0.183594 50.179688 0.242188 49.902344 0.539062 Z M 49.902344 0.539062 "/>
<path style=" stroke:none;fill-rule:nonzero;fill:rgb(23.529412%,34.117647%,40.784314%);fill-opacity:1;" d="M 1.265625 49.429688 L 0.566406 48.730469 C -0.1875 47.972656 -0.1875 46.746094 0.566406 45.992188 L 7.695312 38.863281 C 8.453125 38.105469 9.675781 38.105469 10.433594 38.863281 L 11.132812 39.5625 C 11.890625 40.320312 11.890625 41.542969 11.132812 42.300781 L 4.003906 49.429688 C 3.25 50.183594 2.023438 50.183594 1.265625 49.429688 Z M 1.265625 49.429688 "/>
<path style=" stroke:none;fill-rule:nonzero;fill:rgb(56.078431%,65.098039%,70.588235%);fill-opacity:1;" d="M 0.816406 36.644531 C 0.175781 36.003906 0.25 34.9375 0.984375 34.40625 C 5.074219 31.46875 10.804688 31.835938 14.484375 35.511719 C 18.160156 39.191406 18.527344 44.921875 15.589844 49.011719 C 15.058594 49.746094 13.992188 49.820312 13.351562 49.179688 Z M 0.816406 36.644531 "/>
<use xlink:href="#surface5" mask="url(#mask0)"/>
<path style=" stroke:none;fill-rule:nonzero;fill:rgb(41.176471%,50.980392%,55.686275%);fill-opacity:1;" d="M 0.0976562 0.539062 L 35.363281 37.820312 C 35.449219 37.90625 35.585938 37.910156 35.671875 37.824219 L 37.828125 35.667969 C 37.914062 35.585938 37.910156 35.445312 37.824219 35.359375 L 0.542969 0.09375 C 0.246094 -0.183594 -0.179688 0.242188 0.0976562 0.539062 Z M 0.0976562 0.539062 "/>
<path style=" stroke:none;fill-rule:nonzero;fill:rgb(23.529412%,34.117647%,40.784314%);fill-opacity:1;" d="M 48.734375 49.429688 L 49.433594 48.730469 C 50.1875 47.972656 50.1875 46.746094 49.433594 45.992188 L 42.304688 38.863281 C 41.546875 38.105469 40.324219 38.105469 39.566406 38.863281 L 38.867188 39.5625 C 38.109375 40.320312 38.109375 41.542969 38.867188 42.300781 L 45.996094 49.429688 C 46.75 50.183594 47.976562 50.183594 48.734375 49.429688 Z M 48.734375 49.429688 "/>
<path style=" stroke:none;fill-rule:nonzero;fill:rgb(56.078431%,65.098039%,70.588235%);fill-opacity:1;" d="M 49.183594 36.644531 C 49.824219 36.003906 49.75 34.9375 49.015625 34.40625 C 44.925781 31.46875 39.195312 31.835938 35.515625 35.511719 C 31.839844 39.191406 31.472656 44.921875 34.410156 49.011719 C 34.941406 49.746094 36.007812 49.820312 36.648438 49.179688 Z M 49.183594 36.644531 "/>
<use xlink:href="#surface8" mask="url(#mask1)"/>
</g>
</svg>
