<?xml version="1.0" encoding="UTF-8"?>
<svg xmlns="http://www.w3.org/2000/svg" xmlns:xlink="http://www.w3.org/1999/xlink" width="80pt" height="80pt" viewBox="0 0 80 80" version="1.1">
<g id="surface1">
<path style=" stroke:none;fill-rule:nonzero;fill:rgb(43.137255%,46.27451%,89.803922%);fill-opacity:1;" d="M 40 13.921875 L 40 0 L 13.277344 0 L 22.320312 13.921875 Z M 40 13.921875 "/>
<path style=" stroke:none;fill-rule:nonzero;fill:rgb(31.764706%,35.686275%,87.843137%);fill-opacity:1;" d="M 57.679688 13.921875 L 66.722656 0 L 40 0 L 40 13.921875 Z M 57.679688 13.921875 "/>
<path style=" stroke:none;fill-rule:nonzero;fill:rgb(0%,93.333333%,81.960784%);fill-opacity:1;" d="M 40 46.128906 C 44.964844 46.128906 49.429688 48.261719 52.527344 51.664062 L 79.308594 11.917969 L 66.722656 0 L 57.679688 13.921875 L 40 41.148438 L 22.320312 13.921875 L 13.277344 0 L 0.691406 11.917969 L 27.472656 51.667969 C 30.570312 48.261719 35.035156 46.128906 40 46.128906 Z M 40 46.128906 "/>
<path style=" stroke:none;fill-rule:nonzero;fill:rgb(100%,89.411765%,46.666667%);fill-opacity:1;" d="M 36.769531 70.550781 L 36.769531 55.578125 L 40 55.578125 L 40 46.128906 C 35.035156 46.128906 30.570312 48.261719 27.472656 51.664062 C 24.734375 54.675781 23.0625 58.675781 23.0625 63.0625 C 23.0625 72.417969 30.644531 80 40 80 L 40 70.550781 Z M 36.769531 70.550781 "/>
<path style=" stroke:none;fill-rule:nonzero;fill:rgb(100%,85.490196%,26.666667%);fill-opacity:1;" d="M 40 46.128906 L 40 55.578125 L 43.230469 55.578125 L 43.230469 70.550781 L 40 70.550781 L 40 80 C 49.355469 80 56.9375 72.417969 56.9375 63.0625 C 56.9375 58.675781 55.265625 54.675781 52.527344 51.664062 C 49.429688 48.261719 44.964844 46.128906 40 46.128906 Z M 40 46.128906 "/>
<path style=" stroke:none;fill-rule:nonzero;fill:rgb(43.137255%,46.27451%,89.803922%);fill-opacity:1;" d="M 36.769531 55.578125 L 43.230469 55.578125 L 43.230469 70.550781 L 36.769531 70.550781 Z M 36.769531 55.578125 "/>
</g>
</svg>
