<?xml version="1.0" encoding="UTF-8"?>
<svg xmlns="http://www.w3.org/2000/svg" xmlns:xlink="http://www.w3.org/1999/xlink" width="80pt" height="80pt" viewBox="0 0 80 80" version="1.1">
<g id="surface1">
<path style=" stroke:none;fill-rule:nonzero;fill:rgb(50.196078%,81.568627%,88.235294%);fill-opacity:1;" d="M 79.757812 8.246094 L 59.164062 51.359375 L 20.835938 51.359375 L 0.242188 8.246094 C -0.535156 6.617188 0.652344 4.738281 2.453125 4.738281 L 24.777344 4.738281 C 25.722656 4.738281 26.582031 5.28125 26.988281 6.132812 L 40 33.371094 L 53.011719 6.132812 C 53.417969 5.28125 54.277344 4.738281 55.222656 4.738281 L 77.546875 4.738281 C 79.347656 4.738281 80.535156 6.617188 79.757812 8.246094 Z M 79.757812 8.246094 "/>
<path style=" stroke:none;fill-rule:nonzero;fill:rgb(100%,78.039216%,17.647059%);fill-opacity:1;" d="M 59.164062 51.359375 C 57.207031 42.542969 49.335938 36 40 36 C 27.460938 36 18.109375 47.613281 20.835938 59.902344 C 22.792969 68.71875 30.664062 75.261719 40 75.261719 C 52.539062 75.261719 61.890625 63.648438 59.164062 51.359375 Z M 40 63.300781 L 40 63.296875 C 35.765625 63.296875 32.332031 59.863281 32.332031 55.628906 C 32.332031 51.394531 35.765625 47.960938 40 47.960938 L 40 47.964844 C 44.234375 47.964844 47.667969 51.398438 47.667969 55.632812 C 47.667969 59.867188 44.234375 63.300781 40 63.300781 Z M 40 63.300781 "/>
<path style=" stroke:none;fill-rule:nonzero;fill:rgb(100%,74.509804%,5.098039%);fill-opacity:1;" d="M 40 75.261719 L 40 63.300781 C 44.234375 63.300781 47.667969 59.867188 47.667969 55.632812 C 47.667969 51.398438 44.234375 47.964844 40 47.964844 L 40 36 C 43 36 46.003906 36.683594 48.746094 38.050781 C 53.96875 40.65625 57.867188 45.515625 59.164062 51.359375 C 61.890625 63.648438 52.539062 75.261719 40 75.261719 Z M 40 75.261719 "/>
<path style=" stroke:none;fill-rule:nonzero;fill:rgb(100%,89.411765%,61.176471%);fill-opacity:1;" d="M 40 47.964844 C 35.765625 47.964844 32.332031 51.394531 32.332031 55.632812 C 32.332031 59.867188 35.765625 63.296875 40 63.296875 C 44.234375 63.296875 47.667969 59.867188 47.667969 55.632812 C 47.667969 51.394531 44.234375 47.964844 40 47.964844 Z M 40 47.964844 "/>
<path style=" stroke:none;fill-rule:nonzero;fill:rgb(100%,78.039216%,17.647059%);fill-opacity:1;" d="M 40 47.964844 L 40 63.296875 C 44.234375 63.296875 47.667969 59.867188 47.667969 55.632812 C 47.667969 51.394531 44.234375 47.964844 40 47.964844 Z M 40 47.964844 "/>
<path style=" stroke:none;fill-rule:nonzero;fill:rgb(28.235294%,68.235294%,88.627451%);fill-opacity:1;" d="M 55.222656 4.738281 C 54.277344 4.738281 53.417969 5.28125 53.011719 6.132812 L 40 33.371094 L 26.988281 6.132812 C 26.582031 5.28125 25.722656 4.738281 24.777344 4.738281 L 15.34375 4.738281 L 31.253906 38.050781 C 34 36.683594 37 36 40 36 C 43 36 46.003906 36.683594 48.746094 38.050781 L 64.65625 4.738281 C 64.65625 4.738281 55.222656 4.738281 55.222656 4.738281 Z M 55.222656 4.738281 "/>
<path style=" stroke:none;fill-rule:nonzero;fill:rgb(20.392157%,58.039216%,78.039216%);fill-opacity:1;" d="M 79.757812 8.246094 L 59.164062 51.359375 C 57.867188 45.515625 53.96875 40.65625 48.746094 38.050781 L 64.65625 4.738281 L 77.546875 4.738281 C 79.347656 4.738281 80.535156 6.617188 79.757812 8.246094 Z M 79.757812 8.246094 "/>
</g>
</svg>
