<?xml version="1.0" encoding="UTF-8"?>
<svg xmlns="http://www.w3.org/2000/svg" xmlns:xlink="http://www.w3.org/1999/xlink" width="90pt" height="90pt" viewBox="0 0 90 90" version="1.1">
<g id="surface1">
<path style=" stroke:none;fill-rule:nonzero;fill:rgb(100%,85.882353%,46.666667%);fill-opacity:1;" d="M 66.480469 57.226562 C 66.480469 69.089844 56.863281 78.707031 45 78.707031 C 33.136719 78.707031 23.519531 69.089844 23.519531 57.226562 C 23.519531 45.363281 33.136719 35.746094 45 35.746094 C 56.863281 35.746094 66.480469 45.363281 66.480469 57.226562 Z M 66.480469 57.226562 "/>
<path style=" stroke:none;fill-rule:nonzero;fill:rgb(15.686275%,82.352941%,89.411765%);fill-opacity:1;" d="M 38.222656 36.84375 L 23.832031 11.292969 L 1.941406 11.292969 L 24.394531 51.164062 C 26.375 44.417969 31.574219 39.054688 38.222656 36.84375 Z M 38.222656 36.84375 "/>
<path style=" stroke:none;fill-rule:nonzero;fill:rgb(7.45098%,50.980392%,60.784314%);fill-opacity:1;" d="M 65.605469 51.164062 L 88.058594 11.292969 L 66.167969 11.292969 L 51.777344 36.84375 C 58.425781 39.054688 63.625 44.417969 65.605469 51.164062 Z M 65.605469 51.164062 "/>
<path style=" stroke:none;fill-rule:nonzero;fill:rgb(13.333333%,19.215686%,24.705882%);fill-opacity:1;" d="M 88.058594 9.351562 L 66.167969 9.351562 C 65.464844 9.351562 64.820312 9.730469 64.476562 10.339844 L 50.847656 34.542969 C 47.050781 33.566406 43 33.550781 39.152344 34.542969 L 25.523438 10.339844 C 25.179688 9.730469 24.535156 9.351562 23.832031 9.351562 L 1.941406 9.351562 C 0.460938 9.351562 -0.476562 10.953125 0.25 12.246094 L 22.308594 51.417969 C 18.511719 66.238281 29.773438 80.648438 45 80.648438 C 60.21875 80.648438 71.492188 66.25 67.691406 51.417969 L 89.75 12.246094 C 90.476562 10.953125 89.539062 9.351562 88.058594 9.351562 Z M 24.089844 46.671875 L 5.261719 13.230469 L 22.699219 13.230469 L 35.433594 35.847656 C 30.472656 38.074219 26.480469 41.9375 24.089844 46.671875 Z M 45 76.765625 C 34.226562 76.765625 25.460938 68 25.460938 57.226562 C 25.460938 46.4375 34.242188 37.6875 45 37.6875 C 55.839844 37.6875 64.539062 46.519531 64.539062 57.226562 C 64.539062 68 55.773438 76.765625 45 76.765625 Z M 65.910156 46.671875 C 63.511719 41.921875 59.507812 38.066406 54.566406 35.847656 L 67.300781 13.230469 L 84.738281 13.230469 Z M 65.910156 46.671875 "/>
<path style=" stroke:none;fill-rule:nonzero;fill:rgb(13.333333%,19.215686%,24.705882%);fill-opacity:1;" d="M 55.195312 51.699219 L 50.246094 50.980469 L 48.03125 46.496094 C 46.792969 43.980469 43.207031 43.984375 41.96875 46.496094 L 39.753906 50.980469 L 34.804688 51.699219 C 32.03125 52.101562 30.925781 55.511719 32.929688 57.46875 L 36.511719 60.957031 L 35.667969 65.886719 C 35.191406 68.648438 38.09375 70.753906 40.574219 69.453125 L 45 67.125 L 49.425781 69.453125 C 51.90625 70.757812 54.808594 68.648438 54.332031 65.886719 L 53.488281 60.957031 L 57.070312 57.46875 C 59.074219 55.511719 57.96875 52.101562 55.195312 51.699219 Z M 45.230469 67.003906 Z M 50.59375 58.363281 C 49.796875 59.140625 49.433594 60.257812 49.621094 61.355469 L 50.339844 65.546875 L 46.574219 63.570312 C 45.597656 63.054688 44.421875 63.046875 43.425781 63.570312 L 39.660156 65.546875 L 40.378906 61.355469 C 40.566406 60.257812 40.203125 59.140625 39.40625 58.363281 L 36.363281 55.394531 L 40.570312 54.78125 C 41.671875 54.621094 42.625 53.929688 43.117188 52.929688 L 45 49.117188 L 46.882812 52.929688 C 47.375 53.929688 48.328125 54.621094 49.429688 54.78125 L 53.640625 55.394531 Z M 50.59375 58.363281 "/>
</g>
</svg>
