<?xml version="1.0" encoding="UTF-8"?>
<svg xmlns="http://www.w3.org/2000/svg" xmlns:xlink="http://www.w3.org/1999/xlink" width="100pt" height="100pt" viewBox="0 0 100 100" version="1.1">
<g id="surface1">
<path style=" stroke:none;fill-rule:nonzero;fill:rgb(14.901961%,72.54902%,60.392157%);fill-opacity:1;" d="M 64.058594 24.75 C 71.953125 19.710938 73.277344 12.898438 71.882812 8.203125 C 70.398438 3.207031 65.929688 0 60.496094 0 C 57.582031 -0.0351562 54.765625 1.058594 52.863281 2.984375 C 51.191406 4.675781 50.289062 6.933594 50.316406 9.324219 L 50.316406 32.0625 C 43.964844 37.601562 37.242188 43.546875 35.980469 44.664062 C 31.140625 48.289062 28.117188 53.84375 27.683594 59.902344 C 27.292969 65.386719 29.035156 70.496094 32.464844 73.929688 C 37.988281 79.453125 46.914062 78.976562 50.3125 78.546875 L 50.3125 85.992188 C 50.3125 87.191406 50.203125 88.121094 49.964844 88.921875 C 48.851562 92.675781 45.339844 96.667969 41.027344 96.667969 C 36.285156 96.667969 32.425781 92.8125 32.425781 88.066406 C 32.425781 87.144531 31.679688 86.398438 30.757812 86.398438 C 29.835938 86.398438 29.09375 87.144531 29.09375 88.066406 C 29.09375 94.648438 34.445312 100 41.027344 100 C 47.019531 100 51.667969 94.902344 53.160156 89.871094 C 53.492188 88.753906 53.648438 87.519531 53.648438 85.992188 L 53.648438 77.820312 C 60.363281 75.738281 64.75 70.480469 64.75 64.238281 C 64.75 57.632812 59.945312 52.144531 53.648438 51.046875 L 53.648438 33.582031 C 58.980469 28.945312 63.335938 25.214844 64.058594 24.75 Z M 53.648438 9.304688 C 53.632812 7.773438 54.179688 6.398438 55.238281 5.332031 C 56.511719 4.042969 58.371094 3.296875 60.480469 3.335938 C 64.417969 3.335938 67.636719 5.609375 68.6875 9.152344 C 69.738281 12.683594 68.601562 17.894531 62.265625 21.941406 C 61.476562 22.445312 57.917969 25.46875 53.648438 29.167969 Z M 34.824219 71.570312 C 32.117188 68.863281 30.691406 64.589844 31.007812 60.140625 C 31.375 55.042969 33.914062 50.378906 38.085938 47.246094 C 41.65625 44.089844 46.105469 40.171875 50.316406 36.492188 L 50.316406 50.878906 C 43.398438 51.335938 38.648438 56.316406 38.648438 63.324219 C 38.648438 64.246094 39.390625 64.988281 40.3125 64.988281 C 41.234375 64.988281 41.980469 64.246094 41.980469 63.324219 C 41.980469 58.199219 45.300781 54.691406 50.316406 54.253906 L 50.316406 75.179688 C 47.839844 75.519531 39.511719 76.257812 34.824219 71.570312 Z M 61.417969 64.234375 C 61.417969 69.222656 57.828125 72.652344 53.648438 74.285156 L 53.648438 54.441406 C 58.09375 55.488281 61.417969 59.476562 61.417969 64.234375 Z M 61.417969 64.234375 "/>
</g>
</svg>
